<svg width="418" height="377" viewBox="0 0 418 377" fill="none" xmlns="http://www.w3.org/2000/svg">
<path d="M112.243 257.39H140.814L211.22 229.832C211.22 229.832 261.219 209.419 257.138 248.204C253.056 286.99 245.914 339.044 245.914 339.044C245.914 339.044 223.465 328.837 211.22 331.899C198.976 334.961 207.139 269.638 207.139 269.638C207.139 269.638 107.141 317.61 97.9573 311.486C88.7738 305.362 86.733 262.494 86.733 262.494L112.243 257.39Z" fill="#2F2E41"/>
<path opacity="0.1" d="M112.243 257.39H140.814L211.22 229.832C211.22 229.832 261.219 209.419 257.138 248.204C253.056 286.99 245.914 339.044 245.914 339.044C245.914 339.044 223.465 328.837 211.22 331.899C198.976 334.961 207.139 269.638 207.139 269.638C207.139 269.638 107.141 317.61 97.9573 311.486C88.7738 305.362 86.733 262.494 86.733 262.494L112.243 257.39Z" fill="black"/>
<path d="M157.256 167.892L191.833 217.584L272.444 284.948C272.444 284.948 346.932 302.3 336.728 314.548C326.524 326.796 264.281 302.3 264.281 302.3C264.281 302.3 171.425 234.936 168.364 229.832C165.303 224.729 131.63 176.758 131.63 176.758L157.256 167.892Z" fill="#A0616A"/>
<path opacity="0.1" d="M157.256 167.892L191.833 217.584L272.444 284.948C272.444 284.948 346.932 302.3 336.728 314.548C326.524 326.796 264.281 302.3 264.281 302.3C264.281 302.3 171.425 234.936 168.364 229.832C165.303 224.729 131.63 176.758 131.63 176.758L157.256 167.892Z" fill="black"/>
<path d="M136.732 127.766L159.181 171.655C159.181 171.655 154.079 193.089 145.916 195.13C137.752 197.171 103.059 168.593 103.059 168.593L136.732 127.766Z" fill="#324B50"/>
<path opacity="0.1" d="M136.732 127.766L159.181 171.655C159.181 171.655 154.079 193.089 145.916 195.13C137.752 197.171 103.059 168.593 103.059 168.593L136.732 127.766Z" fill="black"/>
<path d="M410.595 234.667L417.226 262.027C417.3 262.332 417.288 262.652 417.193 262.951L387.113 356.977C386.993 357.349 386.75 357.669 386.424 357.884C386.097 358.099 385.707 358.195 385.318 358.157C384.929 358.118 384.565 357.948 384.286 357.673C384.008 357.399 383.832 357.037 383.788 356.649L379.626 320.02C379.599 319.777 379.624 319.53 379.7 319.298L407.31 234.54C407.425 234.186 407.653 233.88 407.958 233.667C408.263 233.454 408.629 233.347 409 233.361C409.372 233.376 409.729 233.511 410.016 233.747C410.304 233.982 410.507 234.305 410.595 234.667Z" fill="#2F2E41"/>
<path d="M408.156 236.977L414.278 260.453L387.747 346.188L381.625 319.651L408.156 236.977Z" fill="#F2F2F2"/>
<path d="M274.485 364.56C275.505 367.622 380.605 363.54 381.625 362.519C382.515 361.241 383.267 359.872 383.87 358.436C384.829 356.395 385.707 354.354 385.707 354.354L381.625 321.304L277.546 317.61C277.546 317.61 274.944 345.617 274.413 358.436C274.281 361.672 274.281 363.948 274.485 364.56Z" fill="#2F2E41"/>
<path opacity="0.1" d="M368.36 325.775L370.401 354.354H324.484V325.775H368.36Z" fill="black"/>
<path opacity="0.1" d="M309.178 334.961L309.452 334.906L308.157 347.209H282.648V334.961H309.178Z" fill="black"/>
<path opacity="0.1" d="M274.485 364.56C275.505 367.622 380.605 363.54 381.625 362.519C382.515 361.241 383.267 359.872 383.87 358.436H274.413C274.28 361.672 274.281 363.948 274.485 364.56Z" fill="black"/>
<path d="M152.038 113.477C177.397 113.477 197.955 92.9131 197.955 67.5467C197.955 42.1804 177.397 21.6168 152.038 21.6168C126.678 21.6168 106.12 42.1804 106.12 67.5467C106.12 92.9131 126.678 113.477 152.038 113.477Z" fill="#A0616A"/>
<path d="M148.977 108.373C148.977 108.373 133.671 134.911 130.61 149.2C127.549 163.489 84.6923 120.621 84.6923 120.621L79.0801 105.822C79.0801 105.822 119.385 86.9394 116.324 71.6294C113.263 56.3194 148.977 108.373 148.977 108.373Z" fill="#A0616A"/>
<path d="M157.14 187.985L198.976 243.101L298.974 317.61C298.974 317.61 371.421 332.92 355.095 344.147C338.769 355.374 291.831 333.94 291.831 333.94C291.831 333.94 190.813 279.845 169.385 257.39C147.956 234.936 108.161 197.171 108.161 197.171L157.14 187.985Z" fill="#A0616A"/>
<path d="M101.018 273.721L113.263 293.114L186.34 270.117C202.375 265.071 219.957 266.928 234.179 275.89C246.934 283.928 255.097 296.686 236.73 315.568C199.996 353.333 175.507 332.92 175.507 332.92C175.507 332.92 52.0398 391.097 31.6321 362.519C11.2243 333.94 10.2039 319.651 10.2039 319.651C10.2039 319.651 88.7738 270.659 101.018 273.721Z" fill="#2F2E41"/>
<path d="M254.077 341.085C254.077 341.085 286.729 362.519 247.954 372.726C209.18 382.932 180.609 368.643 180.609 368.643C180.609 368.643 146.936 368.643 146.936 351.292C146.936 333.94 158.16 331.899 158.16 331.899L192.853 337.002C192.853 337.002 234.689 325.775 254.077 341.085Z" fill="#D0CDE1"/>
<path d="M189.706 55.9928C192.831 57.3864 195.931 59.0359 199.328 59.4404C202.726 59.845 206.595 58.6584 208.203 55.6371C209.072 54.0052 209.171 52.0856 209.211 50.2374C209.334 44.6327 208.929 38.5737 205.378 34.2363C203.118 31.4759 199.82 29.7357 197.481 27.0423C195.805 25.1126 194.689 22.7736 193.488 20.5174C188.939 11.9711 182.204 3.75746 172.843 1.29365C168.934 0.264817 164.833 0.315031 160.792 0.3721L137.218 0.704755C133.404 0.75859 129.53 0.821146 125.878 1.9256C118.291 4.22036 112.766 10.6028 107.706 16.7064C103.921 21.2728 100.125 25.8865 97.2845 31.0936C93.2113 38.6923 91.1517 47.208 91.302 55.8288C91.2704 58.0397 91.5558 60.2438 92.1494 62.3738C92.8439 64.3272 93.7043 66.2177 94.7212 68.0243C99.142 76.7098 101.767 87.5586 96.7883 95.9367C105.437 92.403 113.994 87.7696 119.699 80.3698C122.251 77.0594 124.252 73.1841 127.654 70.7549C131.055 68.3257 136.597 68.115 138.779 71.6802C139.529 73.1225 139.915 74.7262 139.904 76.3519C140.063 79.028 140.059 81.8072 141.193 84.2361C142.328 86.6651 145.03 88.6248 147.609 87.898C152.052 86.6463 151.627 79.8259 155.049 76.7277C157.647 74.3748 161.657 74.8245 164.995 73.7564C168.885 72.512 171.804 69.1412 173.467 65.4102C174.731 62.5742 174.712 55.1528 177.104 53.617C180.104 51.691 186.926 54.753 189.706 55.9928Z" fill="#2F2E41"/>
<path d="M75.4351 100.98C77.5008 100.429 79.6756 100.434 81.7384 100.996C88.2885 102.755 102.972 107.412 106.12 114.497C110.202 123.683 124.487 137.973 124.487 137.973C124.487 137.973 143.875 157.365 139.793 170.634C135.712 183.903 120.406 199.213 120.406 199.213C120.406 199.213 124.487 262.494 104.08 278.824C83.6718 295.155 75.5087 283.928 75.5087 299.238C75.5087 314.548 12.2447 362.519 0 332.92C0 332.92 6.12234 277.804 4.08156 258.411C2.07021 239.298 5.01471 120.05 75.4351 100.98Z" fill="#324B50"/>
<path d="M108.161 126.745C108.161 126.745 170.405 172.675 159.181 192.068C159.181 192.068 121.426 210.44 113.263 209.419C105.1 208.398 73.468 172.675 65.3049 169.613C57.1418 166.551 53.0602 111.435 108.161 126.745Z" fill="#324B50"/>
</svg>
